{"title":"The D The Details 2013 BRRip 720p x264 AAC - PRiSTiNE [P2PDL]","uid":8227174,"size":593603895,"categoryP":"video","categoryS":"hd___movies","magnet":"?xt=urn:btih:ab9eaf0a14e7164c8278619e7be08dfb580c23ed&amp;dn=The+D+The+Details+2013+BRRip+720p+x264+AAC+-+PRiSTiNE+%5BP2PDL%5D&amp;tr=udp%3A%2F%2Ftracker.openbittorrent.com%3A80&amp;tr=udp%3A%2F%2Fopen.demonii.com%3A1337&amp;tr=udp%3A%2F%2Ftracker.coppersurfer.tk%3A6969&amp;tr=udp%3A%2F%2Fexodus.desync.com%3A6969","seeders":0,"leechers":1,"uploader":"Vitamin_X","files":-1,"time":1362634798,"description":"_________________________  Visit us at _________________________\n  &lt;a href=&quot;\nhttp://p2pdl.com&quot; rel=&quot;nofollow&quot; target=&quot;_NEW&quot;&gt;\nhttp://p2pdl.com&lt;/a&gt;  ____________________________ &lt;a href=&quot; http://p2pdl.com&quot; rel=&quot;nofollow&quot; target=&quot;_NEW&quot;&gt; http://p2pdl.com&lt;/a&gt;\n\n\nThe Devils In The Details 2013 BRRip 720p x264 AAC - PRiSTiNE\n\nGenre: Thriller\nPlot: 7 minutes from now in Nogales, Arizona. Thomas Conrad's \nlife will forever change when he gets caught up in a Mexican \ncartels poetic game of drug mule chess.\nDirector: Waymon Boone\nStars: Ray Liotta, Emilio Rivera, Joel Mathews\nRated: Rated R for strong violence, torture and language throughout\n\nInfo: &lt;a href=&quot;\nhttp://www.imdb.com/title/tt2137359/&quot; rel=&quot;nofollow&quot; target=&quot;_NEW&quot;&gt;\nhttp://www.imdb.com/title/tt2137359/&lt;/a&gt;\n\nGeneral\nComplete name                  : The Devils In The Details 2013 BRRip 720p x264 AAC - PRiSTiNE.mp4\nFormat                         : MPEG-4\nFormat profile                 : Base Media\nCodec ID                       : isom\nFile size                      : 561 MiB\nDuration                       : 1h 40mn\nOverall bit rate mode          : Variable\nOverall bit rate               : 782 Kbps\n\nSource                         : 720p BluRay LCHD (Thanks)\n\nVideo\nFormat                         : AVC\nFormat/Info                    : Advanced Video Codec\nFormat profile                 : &lt;a class=&quot;__cf_email__&quot; href=&quot;/cdn-cgi/l/email-protection&quot; data-cfemail=&quot;fdb5949a95bdb1c9d3cc&quot;&gt;[email&amp;#160;protected]&lt;/a&gt;&lt;script cf-hash='f9e31' type=&quot;text/javascript&quot;&gt;\n/* &lt;![CDATA[ */!function(){try{var t=&quot;currentScript&quot;in document?document.currentScript:function(){for(var t=document.getElementsByTagName(&quot;script&quot;),e=t.length;e--;)if(t[e].getAttribute(&quot;cf-hash&quot;))return t[e]}();if(t&amp;&amp;t.previousSibling){var e,r,n,i,c=t.previousSibling,a=c.getAttribute(&quot;data-cfemail&quot;);if(a){for(e=&quot;&quot;,r=parseInt(a.substr(0,2),16),n=2;a.length-n;n+=2)i=parseInt(a.substr(n,2),16)^r,e+=String.fromCharCode(i);e=document.createTextNode(e),c.parentNode.replaceChild(e,c)}}}catch(u){}}();/* ]]&gt; */&lt;/script&gt;\nFormat settings, CABAC         : Yes\nDuration                       : 1h 40mn\nBit rate                       : 699 Kbps\nWidth                          : 1 280 pixels\nHeight                         : 528 pixels\nDisplay aspect ratio           : 2.40:1\nFrame rate mode                : Constant\nFrame rate                     : 23.976 fps\nColor space                    : YUV\nChroma subsampling             : 4:2:0\nBit depth                      : 8 bits\nScan type                      : Progressive\nBits/(Pixel*Frame)             : 0.043\nStream size                    : 501 MiB (89%)\nWriting library                : x264 core 129 r2245 bc13772\n\nAudio\nFormat                         : AAC\nDuration                       : 1h 40mn\nBit rate mode                  : Variable\nBit rate                       : 79.7 Kbps\nChannel(s)                     : 2 channels\nChannel positions              : Front: L R\nSampling rate                  : 48.0 KHz / 24.0 KHz\nCompression mode               : Lossy\nStream size                    : 57.2 MiB (10%)\nLanguage                       : English\n\nSubtitle                       : No\n\nScreens: &lt;a href=&quot;\nhttp://imgr.us/images/sk37zdfnn0p6cer91avf.jpg&quot; rel=&quot;nofollow&quot; target=&quot;_NEW&quot;&gt;\nhttp://imgr.us/images/sk37zdfnn0p6cer91avf.jpg&lt;/a&gt; &lt;a href=&quot;\nhttp://imgr.us/images/ndijymwajf7ypzrkvq75.jpg&quot; rel=&quot;nofollow&quot; target=&quot;_NEW&quot;&gt;\nhttp://imgr.us/images/ndijymwajf7ypzrkvq75.jpg&lt;/a&gt; &lt;a href=&quot;\nhttp://imgr.us/images/u1u5e5nkvwn7t7fn0pft.jpg&quot; rel=&quot;nofollow&quot; target=&quot;_NEW&quot;&gt;\nhttp://imgr.us/images/u1u5e5nkvwn7t7fn0pft.jpg&lt;/a&gt; &lt;a href=&quot;\nhttp://imgr.us/images/ydj332n16wmb1mduywub.jpg&quot; rel=&quot;nofollow&quot; target=&quot;_NEW&quot;&gt;\nhttp://imgr.us/images/ydj332n16wmb1mduywub.jpg&lt;/a&gt;\n\nThumbs: &lt;a href=&quot;\nhttp://imgr.us/images/c2apg7ri6nlca1hfv9o.jpg&quot; rel=&quot;nofollow&quot; target=&quot;_NEW&quot;&gt;\nhttp://imgr.us/images/c2apg7ri6nlca1hfv9o.jpg&lt;/a&gt;\n----------------------------------------------------------------------------------------------------\nEncoded using revolutionary 10bit encoding, which enables us to provide you more crispier \nand sharper images at small sizes, just make sure you follow our instructions without a fault.\nRecommend to you to use latest version of VLC player. Install K-Lite Codec Pack or shark007 codecs\nin case of any kind of problem in playback (For non-VLC Media Player users). Alternatively, install\nCore AVC codecs, the fastest decoder that there is coupled with Community Center Codec Pack and play\non Windows Media Player Classic. Check sample to be sure.\nEnjoy!","torrent":{"xt":"urn:btih:ab9eaf0a14e7164c8278619e7be08dfb580c23ed","amp;dn":"The+D+The+Details+2013+BRRip+720p+x264+AAC+-+PRiSTiNE+%5BP2PDL%5D","amp;tr":["udp%3A%2F%2Ftracker.openbittorrent.com%3A80","udp%3A%2F%2Fopen.demonii.com%3A1337","udp%3A%2F%2Ftracker.coppersurfer.tk%3A6969","udp%3A%2F%2Fexodus.desync.com%3A6969"],"infoHash":"ab9eaf0a14e7164c8278619e7be08dfb580c23ed","infoHashBuffer":{"type":"Buffer","data":[171,158,175,10,20,231,22,76,130,120,97,158,123,224,141,251,88,12,35,237]},"announce":[],"urlList":[]}}